<svg width="50" height="50" viewBox="0 0 50 50" fill="none" xmlns="http://www.w3.org/2000/svg">
<circle cx="25" cy="25" r="25" fill="#F5A426"/>
<path d="M24.8252 34.225C23.7752 34.225 22.8252 34.05 21.9752 33.7C21.1252 33.35 20.4335 32.8667 19.9002 32.25C19.3669 31.6333 19.0335 30.9167 18.9002 30.1L19.9502 29.15C19.9835 29.7167 20.2085 30.275 20.6252 30.825C21.0419 31.3583 21.6085 31.7917 22.3252 32.125C23.0585 32.4583 23.8919 32.625 24.8252 32.625C25.6585 32.625 26.4085 32.4833 27.0752 32.2C27.7585 31.9 28.2919 31.5 28.6752 31C29.0752 30.4833 29.2752 29.8833 29.2752 29.2C29.2752 28.4667 29.0419 27.8417 28.5752 27.325C28.1085 26.7917 27.4502 26.3833 26.6002 26.1C25.7502 25.8167 24.7419 25.675 23.5752 25.675H22.7252V24.2H23.5752C25.1919 24.2 26.4669 23.9333 27.4002 23.4C28.3335 22.8667 28.8002 22.0667 28.8002 21C28.8002 20.3 28.6085 19.6917 28.2252 19.175C27.8585 18.6583 27.3585 18.2583 26.7252 17.975C26.1085 17.6917 25.4335 17.55 24.7002 17.55C23.6002 17.55 22.6585 17.7917 21.8752 18.275C21.0919 18.7583 20.5419 19.3583 20.2252 20.075L19.0502 18.925C19.3669 18.325 19.8085 17.8083 20.3752 17.375C20.9585 16.9417 21.6169 16.6083 22.3502 16.375C23.1002 16.1417 23.8752 16.025 24.6752 16.025C25.8085 16.025 26.8169 16.2417 27.7002 16.675C28.6002 17.1083 29.3002 17.6917 29.8002 18.425C30.3169 19.1583 30.5752 20 30.5752 20.95C30.5752 21.6167 30.4419 22.2167 30.1752 22.75C29.9085 23.2667 29.5169 23.7083 29.0002 24.075C28.4835 24.425 27.8502 24.6917 27.1002 24.875C27.8835 25.025 28.5669 25.3167 29.1502 25.75C29.7502 26.1833 30.2085 26.7167 30.5252 27.35C30.8585 27.9667 31.0252 28.65 31.0252 29.4C31.0252 30.4 30.7335 31.2583 30.1502 31.975C29.5835 32.6917 28.8335 33.25 27.9002 33.65C26.9669 34.0333 25.9419 34.225 24.8252 34.225Z" fill="black"/>
</svg>
