<svg width="50" height="50" viewBox="0 0 50 50" fill="none" xmlns="http://www.w3.org/2000/svg">
<circle cx="25" cy="25" r="25" fill="#F5A426"/>
<path d="M18.9368 34C18.9201 32.95 19.0035 32.025 19.1868 31.225C19.3701 30.425 19.6451 29.7167 20.0118 29.1C20.3951 28.4833 20.8535 27.95 21.3868 27.5C21.9201 27.0333 22.5201 26.625 23.1868 26.275C23.8202 25.925 24.4785 25.6083 25.1618 25.325C25.8452 25.025 26.4785 24.7 27.0618 24.35C27.6452 24 28.1118 23.575 28.4618 23.075C28.8285 22.5583 29.0118 21.9167 29.0118 21.15C29.0118 20.5167 28.8702 19.9333 28.5868 19.4C28.3202 18.8667 27.9035 18.4417 27.3368 18.125C26.7702 17.7917 26.0535 17.625 25.1868 17.625C24.3368 17.625 23.5785 17.7667 22.9118 18.05C22.2618 18.3333 21.7118 18.675 21.2618 19.075C20.8285 19.475 20.4785 19.8417 20.2118 20.175L19.0868 19.075C19.1868 18.9583 19.3868 18.7333 19.6868 18.4C20.0035 18.0667 20.4201 17.7167 20.9368 17.35C21.4701 16.9833 22.0952 16.675 22.8118 16.425C23.5451 16.1583 24.3951 16.025 25.3618 16.025C26.5951 16.025 27.6202 16.2667 28.4368 16.75C29.2535 17.2167 29.8618 17.8333 30.2618 18.6C30.6785 19.3667 30.8868 20.2083 30.8868 21.125C30.8868 22.0083 30.7118 22.7583 30.3618 23.375C30.0285 23.975 29.5868 24.4833 29.0368 24.9C28.5035 25.3 27.9202 25.65 27.2868 25.95C26.6702 26.25 26.0868 26.5333 25.5368 26.8C24.4701 27.2833 23.6201 27.7583 22.9868 28.225C22.3535 28.6917 21.8785 29.1583 21.5618 29.625C21.2618 30.0917 21.0618 30.5583 20.9618 31.025C20.8618 31.4917 20.8035 31.9667 20.7868 32.45H30.9118V34H18.9368Z" fill="black"/>
</svg>
