<svg width="58" height="58" viewBox="0 0 58 58" fill="none" xmlns="http://www.w3.org/2000/svg">
<g filter="url(#filter0_d_679_2)">
<circle cx="29" cy="25" r="25" fill="#F5A426"/>
</g>
<path d="M33.6998 32.45V34H25.4248V32.45H28.7998V17.925C28.6498 18.125 28.4248 18.35 28.1248 18.6C27.8415 18.8333 27.5081 19.0667 27.1248 19.3C26.7415 19.5167 26.3498 19.7 25.9498 19.85C25.5498 20 25.1831 20.075 24.8498 20.075V18.475C25.2998 18.475 25.7498 18.3583 26.1998 18.125C26.6498 17.875 27.0665 17.6 27.4498 17.3C27.8498 16.9833 28.1665 16.7 28.3998 16.45C28.6498 16.1833 28.7831 16.0417 28.7998 16.025H30.5248V32.45H33.6998Z" fill="black"/>
<defs>
<filter id="filter0_d_679_2" x="0" y="0" width="58" height="58" filterUnits="userSpaceOnUse" color-interpolation-filters="sRGB">
<feFlood flood-opacity="0" result="BackgroundImageFix"/>
<feColorMatrix in="SourceAlpha" type="matrix" values="0 0 0 0 0 0 0 0 0 0 0 0 0 0 0 0 0 0 127 0" result="hardAlpha"/>
<feOffset dy="4"/>
<feGaussianBlur stdDeviation="2"/>
<feComposite in2="hardAlpha" operator="out"/>
<feColorMatrix type="matrix" values="0 0 0 0 0 0 0 0 0 0 0 0 0 0 0 0 0 0 0.25 0"/>
<feBlend mode="normal" in2="BackgroundImageFix" result="effect1_dropShadow_679_2"/>
<feBlend mode="normal" in="SourceGraphic" in2="effect1_dropShadow_679_2" result="shape"/>
</filter>
</defs>
</svg>
